<svg width="120" height="40" viewBox="0 0 120 40" xmlns="http://www.w3.org/2000/svg">
  <!-- Left brace -->
  <path d="M8 10 C8 10, 4 10, 4 14 L4 16 C4 18, 2 18, 2 18 C2 18, 4 18, 4 20 L4 26 C4 30, 8 30, 8 30" 
        stroke="#2563eb" 
        stroke-width="2.5" 
        fill="none" 
        stroke-linecap="round" 
        stroke-linejoin="round"/>
  
  <!-- Right brace -->
  <path d="M22 10 C22 10, 26 10, 26 14 L26 16 C26 18, 28 18, 28 18 C28 18, 26 18, 26 20 L26 26 C26 30, 22 30, 22 30" 
        stroke="#2563eb" 
        stroke-width="2.5" 
        fill="none" 
        stroke-linecap="round" 
        stroke-linejoin="round"/>
  
  <!-- Mark text -->
  <text x="38" y="26" 
        font-family="Inter, -apple-system, BlinkMacSystemFont, 'Segoe UI', Roboto, sans-serif" 
        font-weight="700" 
        font-size="18" 
        fill="#1e293b">Mark</text>
  
  <!-- Notation text -->
  <text x="38" y="14" 
        font-family="Inter, -apple-system, BlinkMacSystemFont, 'Segoe UI', Roboto, sans-serif" 
        font-weight="400" 
        font-size="10" 
        fill="#64748b" 
        letter-spacing="0.5px">NOTATION</text>
  
  <!-- Decorative dots representing data -->
  <circle cx="15" cy="15" r="1.5" fill="#2563eb" opacity="0.6"/>
  <circle cx="15" cy="20" r="1.5" fill="#2563eb" opacity="0.8"/>
  <circle cx="15" cy="25" r="1.5" fill="#2563eb" opacity="0.6"/>
</svg>
