<svg width="40" height="40" viewBox="0 0 40 40" xmlns="http://www.w3.org/2000/svg">
  <defs>
    <linearGradient id="iconGradient" x1="0%" y1="0%" x2="100%" y2="100%">
      <stop offset="0%" style="stop-color:#10b981;stop-opacity:1" />
      <stop offset="100%" style="stop-color:#3b82f6;stop-opacity:1" />
    </linearGradient>
  </defs>
  
  <!-- Rounded background -->
  <rect width="40" height="40" rx="8" fill="url(#iconGradient)" opacity="0.1"/>
  
  <!-- Left brace -->
  <path d="M12 14 C12 14, 9 14, 9 17 L9 18.5 C9 20, 7.5 20, 7.5 20 C7.5 20, 9 20, 9 21.5 L9 23 C9 26, 12 26, 12 26" 
        stroke="url(#iconGradient)" 
        stroke-width="2.5" 
        fill="none" 
        stroke-linecap="round" 
        stroke-linejoin="round"/>
  
  <!-- Right brace -->
  <path d="M28 14 C28 14, 31 14, 31 17 L31 18.5 C31 20, 32.5 20, 32.5 20 C32.5 20, 31 20, 31 21.5 L31 23 C31 26, 28 26, 28 26" 
        stroke="url(#iconGradient)" 
        stroke-width="2.5" 
        fill="none" 
        stroke-linecap="round" 
        stroke-linejoin="round"/>
  
  <!-- Central dot representing unified data -->
  <circle cx="20" cy="20" r="2" fill="url(#iconGradient)"/>
  
  <!-- Small accent dots -->
  <circle cx="20" cy="16" r="1" fill="#10b981" opacity="0.7"/>
  <circle cx="20" cy="24" r="1" fill="#3b82f6" opacity="0.7"/>
</svg>
